HIERARCHY
ROOT SpineBase
{
  OFFSET 0.000000 0.000000 0.000000
  CHANNELS 6 Xposition Yposition Zposition Zrotation Xrotation Yrotation
  JOINT SpineMid
  {
    OFFSET 0.000000 29.486499 0.000000
    CHANNELS 3 Zrotation Xrotation Yrotation
    JOINT SpineShoulder
    {
      OFFSET 0.306117 21.854216 -0.695705
      CHANNELS 3 Zrotation Xrotation Yrotation
      JOINT Neck
      {
        OFFSET 0.167085 7.219528 -0.528892
        CHANNELS 3 Zrotation Xrotation Yrotation
        JOINT Head
        {
          OFFSET 5.057230 10.887092 1.421108
          CHANNELS 3 Zrotation Xrotation Yrotation
          End Site
          {
            OFFSET 0 0 0
          }
        }
      }
      JOINT ShoulderLeft
      {
        OFFSET -11.152532 -2.999497 -12.591098
        CHANNELS 3 Zrotation Xrotation Yrotation
        JOINT ElbowLeft
        {
          OFFSET -5.489920 -22.408135 -4.353584
          CHANNELS 3 Zrotation Xrotation Yrotation
          JOINT WristLeft
          {
            OFFSET -0.383283 -22.519540 -4.115990
            CHANNELS 3 Zrotation Xrotation Yrotation
            JOINT HandLeft
            {
              OFFSET -1.914969 -5.326289 -0.215862
              CHANNELS 3 Zrotation Xrotation Yrotation
              JOINT HandTipLeft
              {
                OFFSET -0.132048 -6.265512 -1.422510
                CHANNELS 3 Zrotation Xrotation Yrotation
                End Site
                {
                  OFFSET 0 0 0
                }
              }
              JOINT ThumbLeft
              {
                OFFSET -2.646732 0.172908 -2.824080
                CHANNELS 3 Zrotation Xrotation Yrotation
                End Site
                {
                  OFFSET 0 0 0
                }
              }
            }
          }
        }
      }
      JOINT ShoulderRight
      {
        OFFSET 12.956100 -4.989070 12.979279
        CHANNELS 3 Zrotation Xrotation Yrotation
        JOINT ElbowRight
        {
          OFFSET -1.092464 -27.162577 0.064039
          CHANNELS 3 Zrotation Xrotation Yrotation
          JOINT WristRight
          {
            OFFSET 0.884137 -22.368517 -8.344675
            CHANNELS 3 Zrotation Xrotation Yrotation
            JOINT HandRight
            {
              OFFSET -1.234201 -3.236446 -1.514225
              CHANNELS 3 Zrotation Xrotation Yrotation
              JOINT HandTipRight
              {
                OFFSET -0.889737 -5.136595 -0.388122
                CHANNELS 3 Zrotation Xrotation Yrotation
                End Site
                {
                  OFFSET 0 0 0
                }
              }
              JOINT ThumbRight
              {
                OFFSET 0.490617 -4.828205 -0.188249
                CHANNELS 3 Zrotation Xrotation Yrotation
                End Site
                {
                  OFFSET 0 0 0
                }
              }
            }
          }
        }
      }
    }
  }
  JOINT HipLeft
  {
    OFFSET -4.220392 1.769192 -8.174576
    CHANNELS 3 Zrotation Xrotation Yrotation
    JOINT KneeLeft
    {
      OFFSET -12.343335 -29.270117 -5.932032
      CHANNELS 3 Zrotation Xrotation Yrotation
      JOINT AnkleLeft
      {
        OFFSET -7.519361 -32.158955 -0.757780
        CHANNELS 3 Zrotation Xrotation Yrotation
        JOINT FootLeft
        {
          OFFSET 0.625418 -7.007592 -7.592134
          CHANNELS 3 Zrotation Xrotation Yrotation
          End Site
          {
            OFFSET 0 0 0
          }
        }
      }
    }
  }
  JOINT HipRight
  {
    OFFSET 5.026799 -0.319102 1.135265
    CHANNELS 3 Zrotation Xrotation Yrotation
    JOINT KneeRight
    {
      OFFSET -6.736253 -31.454355 3.724830
      CHANNELS 3 Zrotation Xrotation Yrotation
      JOINT AnkleRight
      {
        OFFSET -3.324636 -27.844486 2.831734
        CHANNELS 3 Zrotation Xrotation Yrotation
        JOINT FootRight
        {
          OFFSET 3.431085 -7.645701 -3.631736
          CHANNELS 3 Zrotation Xrotation Yrotation
          End Site
          {
            OFFSET 0 0 0
          }
        }
      }
    }
  }
}
MOTION
Frames: 16
Frame Time: 0.033333
-37.342251 68.966825 331.605631 -0.000000 0.000000 -45.193435 0.000000 0.000000 45.193435 -0.000000 0.000000 0.000000 -0.000000 0.000000 0.000000 0.000000 0.000000 0.000000 -0.000000 0.000000 0.000000 -0.000000 0.000000 0.000000 -0.000000 0.000000 0.000000 -0.000000 0.000000 0.000000 0.000000 0.000000 0.000000 0.000000 0.000000 0.000000 -0.000000 0.000000 0.000000 -0.000000 0.000000 0.000000 -0.000000 0.000000 0.000000 -0.000000 0.000000 0.000000 0.000000 0.000000 0.000000 0.000000 0.000000 0.000000 0.000000 0.000000 45.193435 -0.000000 0.000000 0.000000 -0.000000 0.000000 0.000000 0.000000 0.000000 0.000000 0.000000 0.000000 45.193435 -0.000000 0.000000 0.000000 -0.000000 0.000000 0.000000 0.000000 0.000000 0.000000
-37.486865 68.814198 331.598797 -0.373885 0.153486 -44.792992 0.373468 0.154497 44.792989 -0.000000 0.000000 0.000000 -0.000000 0.000000 0.000000 0.000000 0.000000 0.000000 -0.803449 -0.600255 0.298745 -1.053359 0.395650 0.052319 4.107667 0.231466 -0.463567 -5.062401 0.019209 0.743992 0.000000 0.000000 0.000000 0.000000 0.000000 0.000000 -0.000000 0.000000 0.000000 -0.687117 0.845709 0.294094 0.247078 -4.847281 1.440594 -0.436129 7.066119 -2.117767 0.000000 0.000000 0.000000 0.000000 0.000000 0.000000 0.373468 0.154497 44.792989 -0.000000 0.000000 0.000000 -0.000000 0.000000 0.000000 0.000000 0.000000 0.000000 0.373468 0.154497 44.792989 -0.000000 0.000000 0.000000 -0.000000 0.000000 0.000000 0.000000 0.000000 0.000000
-37.578283 68.686739 331.600681 -0.700089 0.306955 -44.493545 -0.106285 0.076053 44.467110 0.722827 -0.435326 0.031853 -0.699791 0.697051 -0.227367 0.000000 0.000000 0.000000 -1.436290 -1.020905 0.515699 -1.862590 0.701606 0.118119 8.213283 0.544136 -0.965589 -9.896188 -0.303914 1.402326 0.000000 0.000000 0.000000 0.000000 0.000000 0.000000 1.222162 -0.626399 0.034771 -2.605190 2.237793 0.590112 0.811360 -8.113843 2.171950 -1.010685 11.851540 -3.291738 0.000000 0.000000 0.000000 0.000000 0.000000 0.000000 1.775171 0.522584 44.535587 -0.931990 0.565075 -0.044617 -0.264231 0.713133 0.349279 0.000000 0.000000 0.000000 1.623048 0.446133 44.689149 -0.768566 0.514930 -0.197661 0.071549 -1.238341 -0.591819 0.000000 0.000000 0.000000
-37.616507 68.584447 331.611284 -0.978948 0.460500 -44.296500 -0.121509 0.113502 44.261754 0.081656 -0.035292 -0.039644 -0.150962 0.406625 -0.241181 0.000000 0.000000 0.000000 -1.025365 -1.880248 0.732729 -2.315220 0.955593 0.156164 12.259903 0.942611 -1.495401 -14.430028 -0.975436 1.917992 0.000000 0.000000 0.000000 0.000000 0.000000 0.000000 2.638029 -1.444060 0.153988 -3.810390 3.139881 0.907106 1.571510 -10.164130 2.397735 -1.845980 14.787776 -3.750377 0.000000 0.000000 0.000000 0.000000 0.000000 0.000000 2.436112 0.648867 44.365925 -1.374897 1.584632 -0.254243 -0.212388 0.200089 0.671045 0.000000 0.000000 0.000000 2.212684 0.559691 44.552510 -0.992506 0.688676 -0.258763 0.107791 -1.644903 -0.792931 0.000000 0.000000 0.000000
-37.601534 68.507323 331.630606 -1.210743 0.614223 -44.202742 -0.111721 0.150030 44.162501 0.106676 -0.048891 -0.047237 -0.336730 0.516636 -0.300723 0.000000 0.000000 0.000000 -1.232596 -2.168837 0.839548 -2.331662 1.180603 0.138192 16.204428 1.437980 -2.049929 -18.614765 -1.995114 2.255648 0.000000 0.000000 0.000000 0.000000 0.000000 0.000000 3.265572 -1.782746 0.198781 -4.950081 3.888125 1.226981 2.472833 -11.231804 2.236184 -2.972417 16.160739 -3.644981 0.000000 0.000000 0.000000 0.000000 0.000000 0.000000 2.947146 0.693777 44.306501 -1.601234 1.948811 -0.329866 -0.242061 0.256829 0.832083 0.000000 0.000000 0.000000 2.650570 0.606209 44.495945 -1.107864 0.804943 -0.295437 0.146284 -1.905793 -0.929164 0.000000 0.000000 0.000000
-37.533367 68.455367 331.658647 -1.395701 0.768231 -44.212663 -0.077103 0.185575 44.169464 0.130496 -0.063400 -0.052045 -0.590361 0.614153 -0.350619 0.000000 0.000000 0.000000 -1.404279 -2.308078 0.893627 -1.868011 1.384925 0.048520 20.016372 2.043897 -2.635623 -22.415431 -3.358508 2.403960 0.000000 0.000000 0.000000 0.000000 0.000000 0.000000 3.779714 -2.056566 0.237054 -6.021142 4.476847 1.540987 3.494026 -11.460998 1.754704 -4.371658 16.147154 -3.093753 0.000000 0.000000 0.000000 0.000000 0.000000 0.000000 3.309620 0.661364 44.358710 -1.714511 2.230499 -0.402148 -0.251024 0.311452 0.961821 0.000000 0.000000 0.000000 2.935294 0.588469 44.520359 -1.937249 1.086996 -0.403960 1.016719 -2.237072 -0.887451 0.000000 0.000000 0.000000
-37.421632 68.436736 331.694097 -1.549587 0.923123 -44.291584 0.022466 0.223790 44.248562 0.161079 -0.088773 -0.052428 -1.048488 0.852467 -0.430455 0.000000 0.000000 0.000000 -1.597538 -2.086276 0.861727 -1.105001 1.178360 -0.045577 25.412865 3.111361 -3.611625 -27.112915 -6.085726 2.349285 0.000000 0.000000 0.000000 0.000000 0.000000 0.000000 4.410059 -2.168088 0.265655 -7.662142 5.380437 2.044253 5.326085 -11.371307 0.692050 -6.716800 14.739517 -1.888268 0.000000 0.000000 0.000000 0.000000 0.000000 0.000000 3.525181 0.564265 44.485160 -1.704422 2.458700 -0.478332 -0.291025 0.259335 1.114356 0.000000 0.000000 0.000000 3.072345 0.514289 44.589573 -1.931434 1.173948 -0.410068 1.344664 -2.432830 -1.013638 0.000000 0.000000 0.000000
-37.223680 68.453166 331.732574 -1.628255 1.079028 -44.535247 0.122299 0.263638 44.494587 0.189240 -0.107303 -0.049805 -1.457262 0.986187 -0.488849 0.000000 0.000000 0.000000 -1.803552 -2.001725 0.842343 0.380497 1.530608 -0.302175 30.122905 3.863013 -4.416964 -31.414115 -8.629349 2.170755 0.000000 0.000000 0.000000 0.000000 0.000000 0.000000 4.856722 -2.383833 0.294548 -9.051787 5.867106 2.468133 7.619402 -10.024860 -0.818155 -7.912083 11.410573 -0.555549 0.000000 0.000000 0.000000 0.000000 0.000000 0.000000 3.519628 0.328254 44.798462 -1.481350 2.533132 -0.551807 -0.300721 0.235227 1.177675 0.000000 0.000000 0.000000 2.993583 0.307183 44.795181 -1.665003 1.129711 -0.370883 1.315244 -2.091436 -0.828444 0.000000 0.000000 0.000000
-36.980009 68.471413 331.781971 -1.660817 1.246300 -44.896852 0.223979 0.307666 44.860060 0.209157 -0.116730 -0.045893 -1.896015 0.916433 -0.473271 0.000000 0.000000 0.000000 -1.932312 -1.791381 0.767316 2.462610 1.876403 -0.648928 32.734251 5.008276 -5.299441 -33.585894 -10.694471 1.943412 0.000000 0.000000 0.000000 0.000000 0.000000 0.000000 5.038781 -2.465325 0.305163 -9.981699 5.859161 2.753080 11.547252 -7.750542 -3.232830 -9.679810 3.564030 2.137599 0.000000 0.000000 0.000000 0.000000 0.000000 0.000000 3.448473 0.022373 45.240373 -1.261018 2.615779 -0.634915 -0.078174 0.112111 1.053538 0.000000 0.000000 0.000000 2.818155 0.070944 45.101359 -1.412034 1.025455 -0.320063 1.382053 -1.529396 -0.556293 0.000000 0.000000 0.000000
-36.719495 68.504825 331.843328 -1.645140 1.401797 -45.284978 0.304816 0.340005 45.252291 0.221848 -0.123598 -0.041486 -2.395972 0.887482 -0.470539 0.000000 0.000000 0.000000 -2.011241 -1.286558 0.616134 4.820033 1.736231 -0.960144 33.672403 5.971513 -5.913783 -33.722169 -13.802009 1.806336 0.000000 0.000000 0.000000 0.000000 0.000000 0.000000 4.909167 -2.697943 0.315587 -9.805720 5.053348 2.622715 10.640248 -5.044922 -3.706866 -10.989359 1.775900 2.395456 0.000000 0.000000 0.000000 0.000000 0.000000 0.000000 3.290793 -0.296664 45.694483 -1.006973 2.575342 -0.687989 0.045783 0.387454 1.031073 0.000000 0.000000 0.000000 2.153477 0.183128 45.301664 -1.116688 0.306505 -0.147047 1.468222 -1.217024 -0.419512 0.000000 0.000000 0.000000
-36.470823 68.525024 331.923259 -1.619974 1.517935 -45.721869 0.359667 0.349486 45.691990 0.219026 -0.129837 -0.039221 -3.008327 1.018671 -0.496649 0.000000 0.000000 0.000000 -1.893856 -0.578752 0.405838 7.190614 1.418856 -1.186789 33.797362 7.074468 -6.598786 -32.935763 -17.180822 1.915771 0.000000 0.000000 0.000000 0.000000 0.000000 0.000000 4.373738 -2.772893 0.299179 -8.552933 3.669888 2.178446 7.152502 -2.453545 -2.807682 -11.231067 2.864106 1.388355 0.000000 0.000000 0.000000 0.000000 0.000000 0.000000 3.084569 -0.570797 46.180219 -0.731724 2.490553 -0.726039 0.067902 0.940341 1.106808 0.000000 0.000000 0.000000 2.217597 0.100494 45.741386 -1.145592 0.305238 -0.149764 1.338733 -1.090799 -0.287414 0.000000 0.000000 0.000000
-36.264158 68.542739 332.028632 -1.645609 1.654021 -46.155785 0.366094 0.343371 46.126061 0.207686 -0.129454 -0.042224 -3.467202 1.030609 -0.492940 0.000000 0.000000 0.000000 -1.713196 0.296366 0.161595 9.824871 0.861472 -1.328030 32.231963 6.979422 -6.128257 -29.906361 -16.799420 1.933577 0.000000 0.000000 0.000000 0.000000 0.000000 0.000000 4.420857 -3.131097 0.330722 -8.464549 3.188240 2.102124 4.818906 -0.109008 -2.371498 -10.176350 5.715785 0.402923 0.000000 0.000000 0.000000 0.000000 0.000000 0.000000 2.911498 -0.750052 46.624557 -0.476470 2.267789 -0.712812 -0.077046 1.550007 1.318389 0.000000 0.000000 0.000000 2.332666 0.041584 46.178694 -1.150412 0.309265 -0.150681 1.212642 -1.121495 -0.237682 0.000000 0.000000 0.000000
-36.125817 68.553972 332.150854 -1.770247 1.810372 -46.563383 0.311309 0.315872 46.529879 0.182642 -0.123837 -0.053609 -3.749821 0.967988 -0.471264 0.000000 0.000000 0.000000 -1.382034 1.263987 -0.098493 12.032450 0.060544 -1.254768 31.153538 7.415770 -6.196024 -26.828237 -16.112933 1.941197 0.000000 0.000000 0.000000 0.000000 0.000000 0.000000 4.542276 -3.276451 0.359185 -8.213065 2.581619 1.988055 1.573052 1.818243 -1.314347 -8.907968 7.291148 -0.706510 0.000000 0.000000 0.000000 0.000000 0.000000 0.000000 2.864511 -0.794911 47.013750 -0.288155 2.043425 -0.676953 -0.305445 1.884135 1.582906 0.000000 0.000000 0.000000 2.531496 0.041311 46.590442 -1.071285 0.316829 -0.143698 0.821069 -1.258927 -0.158678 0.000000 0.000000 0.000000
-36.066288 68.549372 332.280716 -2.000570 1.988338 -46.992396 0.220250 0.277705 46.952501 0.153475 -0.117168 -0.071630 -3.729632 0.854569 -0.456974 0.000000 0.000000 0.000000 -0.874334 2.061196 -0.324882 13.893597 -0.584232 -1.117708 30.283087 7.399401 -5.945491 -23.598391 -15.217342 1.843032 0.000000 0.000000 0.000000 0.000000 0.000000 0.000000 4.712120 -3.241158 0.384655 -7.891943 2.140495 1.897268 -1.530819 2.727921 -0.072220 -7.082931 8.135818 -1.789132 0.000000 0.000000 0.000000 0.000000 0.000000 0.000000 2.966794 -0.695649 47.400283 -0.172876 1.850174 -0.626043 -0.682929 2.061878 1.977037 0.000000 0.000000 0.000000 2.002673 -0.100864 46.843403 -0.270854 -0.104672 0.037729 0.354497 -1.387741 -0.033422 0.000000 0.000000 0.000000
-36.076260 68.525641 332.403687 -2.305887 2.202496 -47.441356 0.083537 0.226070 47.393183 0.118294 -0.107948 -0.095699 -3.478312 0.573195 -0.406516 0.000000 0.000000 0.000000 -0.253416 2.681703 -0.513218 15.516686 -1.111655 -0.950255 29.878683 7.240449 -5.643839 -21.059535 -15.870375 1.985765 0.000000 0.000000 0.000000 0.000000 0.000000 0.000000 4.854565 -2.892641 0.395870 -7.491276 1.762237 1.842432 -4.264034 2.599869 1.132132 -5.585508 8.599596 -2.761119 0.000000 0.000000 0.000000 0.000000 0.000000 0.000000 3.181422 0.209952 47.479857 -0.669975 1.130414 -0.241537 -1.122594 2.058133 2.424577 0.000000 0.000000 0.000000 2.296628 0.228734 47.271773 -0.316342 -0.236577 0.064918 -0.112205 -1.532098 0.117165 0.000000 0.000000 0.000000
-36.111805 68.511797 332.523470 -2.657679 2.439506 -48.003133 -0.054275 0.161825 47.946817 0.088233 -0.105402 -0.121850 -3.164161 0.279616 -0.352270 0.000000 0.000000 0.000000 0.525693 3.282676 -0.714370 16.438964 -1.676310 -0.652065 30.353172 6.495438 -4.940907 -19.599577 -14.387812 1.451132 0.000000 0.000000 0.000000 0.000000 0.000000 0.000000 5.005056 -2.457763 0.407521 -7.264843 2.127687 1.932196 -6.052729 1.254346 1.837974 -5.488955 13.131247 -3.483642 0.000000 0.000000 0.000000 0.000000 0.000000 0.000000 3.590502 0.344431 48.048935 -0.722108 1.061895 -0.224211 -1.515143 1.910780 2.866447 0.000000 0.000000 0.000000 2.652760 0.655556 47.816341 -0.459417 -0.420565 0.088838 -3.406601 -5.052077 -0.079992 0.000000 0.000000 0.000000
